<svg viewBox="0 0 1513 400" xmlns="http://www.w3.org/2000/svg"><g><g><g><g><g><line x1="30" y1="347.4451686412663" x2="25" y2="347.4451686412663" style="visibility: inherit;" fill="rgb(0, 0, 0)" stroke="rgb(204, 204, 204)" stroke-width="1px"></line><line x1="30" y1="299.5807158520388" x2="25" y2="299.5807158520388" style="visibility: inherit;" fill="rgb(0, 0, 0)" stroke="rgb(204, 204, 204)" stroke-width="1px"></line><line x1="30" y1="251.71626306281127" x2="25" y2="251.71626306281127" style="visibility: inherit;" fill="rgb(0, 0, 0)" stroke="rgb(204, 204, 204)" stroke-width="1px"></line><line x1="30" y1="203.85181027358374" x2="25" y2="203.85181027358374" style="visibility: inherit;" fill="rgb(0, 0, 0)" stroke="rgb(204, 204, 204)" stroke-width="1px"></line><line x1="30" y1="155.9873574843562" x2="25" y2="155.9873574843562" style="visibility: inherit;" fill="rgb(0, 0, 0)" stroke="rgb(204, 204, 204)" stroke-width="1px"></line><line x1="30" y1="108.12290469512863" x2="25" y2="108.12290469512863" style="visibility: inherit;" fill="rgb(0, 0, 0)" stroke="rgb(204, 204, 204)" stroke-width="1px"></line><line x1="30" y1="60.258451905901154" x2="25" y2="60.258451905901154" style="visibility: inherit;" fill="rgb(0, 0, 0)" stroke="rgb(204, 204, 204)" stroke-width="1px"></line><line x1="30" y1="12.39399911667357" x2="25" y2="12.39399911667357" style="visibility: inherit;" fill="rgb(0, 0, 0)" stroke="rgb(204, 204, 204)" stroke-width="1px"></line></g><g transform="translate(20, 0)"><text x="0" y="347.4451686412663" dx="0em" dy="0.3em" style="text-anchor: end; visibility: inherit; font-family: &quot;Helvetica Neue&quot;, sans-serif; font-size: 12px; font-weight: 200;" fill="rgb(50, 49, 63)" stroke="none" stroke-width="1px">0</text><text x="0" y="299.5807158520388" dx="0em" dy="0.3em" style="text-anchor: end; visibility: inherit; font-family: &quot;Helvetica Neue&quot;, sans-serif; font-size: 12px; font-weight: 200;" fill="rgb(50, 49, 63)" stroke="none" stroke-width="1px">2</text><text x="0" y="251.71626306281127" dx="0em" dy="0.3em" style="text-anchor: end; visibility: inherit; font-family: &quot;Helvetica Neue&quot;, sans-serif; font-size: 12px; font-weight: 200;" fill="rgb(50, 49, 63)" stroke="none" stroke-width="1px">4</text><text x="0" y="203.85181027358374" dx="0em" dy="0.3em" style="text-anchor: end; visibility: inherit; font-family: &quot;Helvetica Neue&quot;, sans-serif; font-size: 12px; font-weight: 200;" fill="rgb(50, 49, 63)" stroke="none" stroke-width="1px">6</text><text x="0" y="155.9873574843562" dx="0em" dy="0.3em" style="text-anchor: end; visibility: inherit; font-family: &quot;Helvetica Neue&quot;, sans-serif; font-size: 12px; font-weight: 200;" fill="rgb(50, 49, 63)" stroke="none" stroke-width="1px">8</text><text x="0" y="108.12290469512863" dx="0em" dy="0.3em" style="text-anchor: end; visibility: inherit; font-family: &quot;Helvetica Neue&quot;, sans-serif; font-size: 12px; font-weight: 200;" fill="rgb(50, 49, 63)" stroke="none" stroke-width="1px">10</text><text x="0" y="60.258451905901154" dx="0em" dy="0.3em" style="text-anchor: end; visibility: inherit; font-family: &quot;Helvetica Neue&quot;, sans-serif; font-size: 12px; font-weight: 200;" fill="rgb(50, 49, 63)" stroke="none" stroke-width="1px">12</text><text x="0" y="12.39399911667357" dx="0em" dy="0.3em" style="text-anchor: end; visibility: inherit; font-family: &quot;Helvetica Neue&quot;, sans-serif; font-size: 12px; font-weight: 200;" fill="rgb(50, 49, 63)" stroke="none" stroke-width="1px">14</text></g><line x1="30" y1="0" x2="30" y2="378" fill="rgb(0, 0, 0)" stroke="rgb(204, 204, 204)" stroke-width="1px"></line></g></g><g transform="translate(30, 0)" clip-path="url(#clip_0)"><clipPath id="clip_0"><rect width="1483" height="378"></rect></clipPath><g><g><g><line x1="13.752747036793552" y1="0" x2="13.752747036793552" y2="378" fill="rgb(0, 0, 0)" stroke="rgb(60, 60, 60)" stroke-width="1px" opacity="0.25"></line><line x1="161.2986310788684" y1="0" x2="161.2986310788684" y2="378" fill="rgb(0, 0, 0)" stroke="rgb(60, 60, 60)" stroke-width="1px" opacity="0.25"></line><line x1="308.84451512094324" y1="0" x2="308.84451512094324" y2="378" fill="rgb(0, 0, 0)" stroke="rgb(60, 60, 60)" stroke-width="1px" opacity="0.25"></line><line x1="456.390399163018" y1="0" x2="456.390399163018" y2="378" fill="rgb(0, 0, 0)" stroke="rgb(60, 60, 60)" stroke-width="1px" opacity="0.25"></line><line x1="603.9362832050929" y1="0" x2="603.9362832050929" y2="378" fill="rgb(0, 0, 0)" stroke="rgb(60, 60, 60)" stroke-width="1px" opacity="0.25"></line><line x1="751.4821672471677" y1="0" x2="751.4821672471677" y2="378" fill="rgb(0, 0, 0)" stroke="rgb(60, 60, 60)" stroke-width="1px" opacity="0.25"></line><line x1="899.0280512892425" y1="0" x2="899.0280512892425" y2="378" fill="rgb(0, 0, 0)" stroke="rgb(60, 60, 60)" stroke-width="1px" opacity="0.25"></line><line x1="1046.5739353313172" y1="0" x2="1046.5739353313172" y2="378" fill="rgb(0, 0, 0)" stroke="rgb(60, 60, 60)" stroke-width="1px" opacity="0.25"></line><line x1="1194.1198193733921" y1="0" x2="1194.1198193733921" y2="378" fill="rgb(0, 0, 0)" stroke="rgb(60, 60, 60)" stroke-width="1px" opacity="0.25"></line><line x1="1341.665703415467" y1="0" x2="1341.665703415467" y2="378" fill="rgb(0, 0, 0)" stroke="rgb(60, 60, 60)" stroke-width="1px" opacity="0.25"></line></g><g><line x1="0" y1="347.4451686412663" x2="1483" y2="347.4451686412663" fill="rgb(0, 0, 0)" stroke="rgb(60, 60, 60)" stroke-width="1px" opacity="0.25"></line><line x1="0" y1="299.5807158520388" x2="1483" y2="299.5807158520388" fill="rgb(0, 0, 0)" stroke="rgb(60, 60, 60)" stroke-width="1px" opacity="0.25"></line><line x1="0" y1="251.71626306281127" x2="1483" y2="251.71626306281127" fill="rgb(0, 0, 0)" stroke="rgb(60, 60, 60)" stroke-width="1px" opacity="0.25"></line><line x1="0" y1="203.85181027358374" x2="1483" y2="203.85181027358374" fill="rgb(0, 0, 0)" stroke="rgb(60, 60, 60)" stroke-width="1px" opacity="0.25"></line><line x1="0" y1="155.9873574843562" x2="1483" y2="155.9873574843562" fill="rgb(0, 0, 0)" stroke="rgb(60, 60, 60)" stroke-width="1px" opacity="0.25"></line><line x1="0" y1="108.12290469512863" x2="1483" y2="108.12290469512863" fill="rgb(0, 0, 0)" stroke="rgb(60, 60, 60)" stroke-width="1px" opacity="0.25"></line><line x1="0" y1="60.258451905901154" x2="1483" y2="60.258451905901154" fill="rgb(0, 0, 0)" stroke="rgb(60, 60, 60)" stroke-width="1px" opacity="0.25"></line><line x1="0" y1="12.39399911667357" x2="1483" y2="12.39399911667357" fill="rgb(0, 0, 0)" stroke="rgb(60, 60, 60)" stroke-width="1px" opacity="0.25"></line></g></g></g><g><g><line x1="0" y1="347.4451686412663" x2="1483" y2="347.4451686412663" fill="rgb(0, 0, 0)" stroke="rgb(153, 153, 153)" stroke-width="1.5px"></line></g></g><g><g><line x1="161.2986310788684" y1="0" x2="161.2986310788684" y2="378" fill="rgb(0, 0, 0)" stroke="rgb(153, 153, 153)" stroke-width="1.5px"></line></g></g><g><g><g><g><g><path style="fill: none;" stroke="rgb(238, 51, 119)" stroke-width="2px" d="M168.67592528097214,148.54268076631126L187.85689020644185,150.7034775055878L196.70964324896636,151.69258167663824L220.31698469569832,154.30517058117647L223.2679023765398,154.62919651551437L227.69427889780206,155.11419694551233L239.49794962116806,156.4013652631773L243.9243261424303,156.88175533614654L266.0562087487415,159.26503603738172L270.48258527000377,159.7379856331661L299.99176207841873,162.85972228322873L311.7954328017847,164.09333514164706L317.6972681634677,164.70693486213082L347.20644497188266,167.74323155409007L366.38740989735237,169.68876798487133L389.9947513440843,172.05335619894564L394.42112786534653,172.493074706444L407.70025742913333,173.80539457581992L423.93030467376155,175.39548845617418L431.30759887586527,176.11326626902152L434.25851655670675,176.39950781691888L435.7339753971275,176.54244029658298L441.63581075881046,177.11292633178363L466.71861104596326,179.51558422666906L499.1787055352197,182.5727758783301L506.5559997373234,183.25949084010793L528.6878823436347,185.3018904155909L537.5406353861592,186.1114303097938L544.917929588263,186.78284208153335L555.2461414712081,187.71794573411907L561.1479768328911,188.24974585266813L564.0988945137326,188.51495549956584L592.1326124817268,191.01163500722194L615.7399539284588,193.08243849024052L618.6908716093003,193.3392718944178L630.4945423326664,194.3621777424954L648.2000484177153,195.88328744404168L661.479177981502,197.01378350515506L673.282848704868,198.01128674247556L696.8901901516,199.98566072823573L702.792025513283,200.47499763266663L782.4668028960034,206.91750369748826L783.942261736424,207.03399509488636L809.0250620235768,208.99886307221857L813.4514385448391,209.34259714167663L817.8778150661014,209.68545250447332L840.0096976724126,211.3864003654629L844.4360741936748,211.72394925296666L845.9115330340956,211.83627535255417L860.666121438303,212.9541271671631L885.7489217254557,214.83239118535994L888.6998394062972,215.0515543208449L919.6844750551329,217.32991516435297L924.1108515763952,217.65202392052055L944.7672753422856,219.14417053756486L952.1445695443895,219.6727068885144L991.9819582357495,222.48756950179882L1006.7365466399572,223.5134994702046L1015.5892996824816,224.12480542394886L1018.5402173633231,224.3278665451579L1025.9175115654268,224.83399017035413L1027.3929704058476,224.93495014221747L1049.5248530121587,226.43891935797893L1076.0831121397323,228.21806070005897L1079.0340298205738,228.4140351091026L1096.7395359056227,229.5827834394243L1107.0677477885679,230.2589539212652L1108.5432066289889,230.35522365367612L1111.4941243098303,230.5474892359021L1115.9205008310923,230.8352827851755L1118.8714185119338,231.0267153078394L1136.576924596983,232.16842914360424L1151.3315130011904,233.11083633207699L1169.0370190862393,234.23098191342547L1176.4143132883432,234.69428855948397L1214.7762431392825,237.07137266699L1220.6780785009655,237.43234992820635L1226.5799138626485,237.79207189419213L1228.0553727030695,237.881814091404L1238.3835845860144,238.50779558757125L1251.6627141498013,239.3070762962079L1257.5645495114843,239.66031637409392L1263.4663848731675,240.01233539207385L1270.843679075271,240.45065025126897L1276.745514436954,240.79993044329126L1290.0246440007409,241.58140878320327L1295.9264793624238,241.9267747364611L1298.8773970432653,242.0990126538719L1301.8283147241068,242.2709538651373L1312.156526607052,242.87039157306515L1319.5338208091557,243.29634748012643L1322.4847384899972,243.46621174837392L1329.8620326921011,243.88960000609993L1332.8129503729426,244.05843721461332L1338.7147857346256,244.39523292497873L1344.6166210963086,244.73087604608696L1353.469374138833,245.23214966698322L1354.9448329792538,245.31544421141982L1388.880386308931,247.21140789236784L1394.782221670614,247.5373053577768L1443.4723634044988,250.1832737036737L1453.8005752874437,250.73488466331634L1462.6533283299682,251.20502696249412L1483.3097520958588,252.29259763260893" fill="none"></path></g><g><path style="fill: none;" fill="none" stroke="none" stroke-width="1px"></path></g><g><path style="fill: none;" stroke="rgb(204, 51, 17)" stroke-width="2px" d="M168.67592528097214,-1586.9319157755822L187.85689020644185,148.82923043212887L196.70964324896636,149.2099272402402L220.31698469569832,150.20665447687273L223.2679023765398,150.33088305760117L227.69427889780206,150.51707757562107L239.49794962116806,151.0126909562049L243.9243261424303,151.1982007677354L266.0562087487415,152.1231022936289L270.48258527000377,152.30753939832604L299.99176207841873,153.53257060207707L311.7954328017847,154.02033268158232L316.22180932304695,154.20292107875807L317.6972681634677,154.26374583856722L328.02548004641295,154.68897139203978L347.20644497188266,155.47608714871458L366.38740989735237,156.25988207891575L382.6174571419806,156.92050972344708L389.9947513440843,157.2200117536894L394.42112786534653,157.39948473633825L407.70025742913333,157.93684238922637L423.93030467376155,158.59149026375022L431.30759887586527,158.88827629158448L434.25851655670675,159.0068560437753L435.7339753971275,159.0661173904336L441.63581075881046,159.302968776895L453.4394814821765,159.77575860783182L465.24315220554246,160.24731596708767L466.71861104596326,160.30617790162722L474.09590524806697,160.60017945640456L490.32595249269525,161.24530991072564L499.1787055352197,161.5962333983225L506.5559997373234,161.88813518653234L528.6878823436347,162.76102184278042L537.5406353861592,163.10898968069802L544.917929588263,163.3984379373208L555.2461414712081,163.80288264883984L561.1479768328911,164.03358308867132L564.0988945137326,164.14881919083885L592.1326124817268,165.23983051106293L599.5099066838305,165.5258209999142L600.9853655242513,165.58295975645538L608.3626597263551,165.86840248011512L615.7399539284588,166.1533659092323L618.6908716093003,166.26722118664614L630.4945423326664,166.72192335448779L631.9700011730871,166.77867411068496L648.2000484177153,167.4017456042722L661.479177981502,167.9098777018374L673.282848704868,168.3603004541202L696.8901901516,169.25764254381502L702.792025513283,169.48124485970632L717.5466139174905,170.038995354204L782.4668028960034,172.4716433933255L783.942261736424,172.52653403022643L795.7459324597902,172.96496300716979L809.0250620235768,173.45683332561146L811.9759797044183,173.56595271647362L813.4514385448391,173.6204781765802L817.8778150661014,173.78395185092657L826.7305681086259,174.1104313168516L840.0096976724126,174.59895798526998L844.4360741936748,174.761484482306L845.9115330340956,174.81562194206862L860.666121438303,175.356060774159L885.7489217254557,176.27076017336034L888.6998394062972,176.3780422684759L916.7335573742914,177.39373587486503L919.6844750551329,177.50028761639192L924.1108515763952,177.65998399327168L935.9145222997612,178.08508401722122L944.7672753422856,178.40317582865092L947.7181930231271,178.5090770990128L952.1445695443895,178.66779206325782L960.9973225869139,178.98475410898L968.3746167890176,179.24841175450175L983.1292051932251,179.7744489267649L991.9819582357495,180.0892541470455L1000.8347112782742,180.4034431314856L1006.7365466399572,180.61256390512585L1015.5892996824816,180.92573724160667L1018.5402173633231,181.029995216394L1022.9665938845854,181.18624523727712L1025.9175115654268,181.29033203544208L1027.3929704058476,181.3423469050875L1034.7702646079513,181.60218160604336L1036.245723448372,181.6541051814902L1049.5248530121587,182.12058430094967L1068.7058179376286,182.7919960726892L1076.0831121397323,183.0494685362566L1079.0340298205738,183.15234568629026L1096.7395359056227,183.76818211463942L1107.0677477885679,184.12631784392474L1108.5432066289889,184.1774197715843L1111.4941243098303,184.27955515625445L1115.9205008310923,184.43264411551147L1118.8714185119338,184.5346197353341L1136.576924596983,185.1450812177414L1141.0033011182452,185.29732570566148L1146.9051364799282,185.50007870895027L1151.3315130011904,185.65198084362564L1155.7578895224528,185.80372321345348L1161.6597248841358,186.00582574557734L1163.1351837245563,186.0563114373964L1169.0370190862393,186.2580830280504L1176.4143132883432,186.5099408984046L1202.9725724159166,187.41320569923283L1214.7762431392825,187.81297158307422L1220.6780785009655,188.0124608187635L1226.5799138626485,188.21168758363183L1228.0553727030695,188.261454333637L1238.3835845860144,188.6093765244553L1251.6627141498013,189.05554268472898L1257.5645495114843,189.25342286016814L1263.4663848731675,189.45104056478638L1270.843679075271,189.6976946658211L1276.745514436954,189.89474178169814L1290.0246440007409,190.33715346805488L1295.9264793624238,190.533356112595L1297.4019382028446,190.58236968546186L1298.8773970432653,190.6313718465539L1301.8283147241068,190.7293191098638L1303.3037735645275,190.77826421208175L1312.156526607052,191.07162670746897L1318.058361968735,191.26688217469874L1319.5338208091557,191.31565610029432L1322.4847384899972,191.41315830438612L1329.8620326921011,191.6566285202451L1331.3374915325217,191.70527691631762L1332.8129503729426,191.7539139006153L1338.7147857346256,191.9482792494088L1344.6166210963086,192.14239353915625L1351.9939152984123,192.3846883422084L1353.469374138833,192.4330970910096L1354.9448329792538,192.481494428036L1388.880386308931,193.59025105811062L1394.782221670614,193.78224275774087L1397.7331393514555,193.8781359015826L1405.1104335535592,194.11761199625334L1443.4723634044988,195.35661121238837L1450.8496576066022,195.59367942257137L1453.8005752874437,195.68839715360627L1462.6533283299682,195.97219658169143L1474.4569990533344,196.34972091640185L1483.3097520958588,196.63223081393195" fill="none"></path></g><g><path style="fill: none;" fill="none" stroke="none" stroke-width="1px"></path></g><g><path style="fill: none;" stroke="rgb(255, 112, 67)" stroke-width="2px" d="M168.67592528097214,147.9892096873724L170.15138412139288,148.89877378790317L177.5286783234966,149.99987311707125L181.95505484475885,150.62097037361406L183.4305136851796,150.82756914501837L187.85689020644185,151.44599604625247L190.80780788728333,151.85716229314252L196.70964324896636,152.67682443161388L214.41514933401535,155.11458494585634L220.31698469569832,155.92016495419554L223.2679023765398,156.3216311924856L226.21882005738132,156.72224154766394L227.69427889780206,156.92221007789578L230.64519657864355,157.32151949074424L239.49794962116806,158.51425537174487L240.9734084615888,158.71228390025675L242.44886730200955,158.9101070168218L243.9243261424303,159.10771330966523L245.39978498285103,159.30510277878696L257.203455706217,160.8765612308545L261.62983222747926,161.46236186786825L266.0562087487415,162.04624532671167L267.5316675891622,162.2404623224325L269.00712642958297,162.43445108265686L270.48258527000377,162.62824584270925L277.8598794721075,163.59403575779527L289.6635501954735,165.1284630005606L291.1390090358942,165.31932493448335L299.99176207841873,166.4602057106861L311.7954328017847,167.96988081385922L316.22180932304695,168.5326410775044L317.6972681634677,168.71981700815914L328.02548004641295,170.02441110597954L332.4518565676752,170.58049548135298L335.40277424851666,170.95022557385894L347.20644497188266,172.42112346618197L351.63282149314495,172.9694250111258L353.1082803335657,173.15180799635465L366.38740989735237,174.7842966201781L369.33832757819386,175.14490870460014L370.81378641861465,175.32492945244056L372.2892452590354,175.50474478833416L382.6174571419806,176.75805437009785L389.9947513440843,177.64746527629032L392.9456690249258,178.0018807669832L394.42112786534653,178.17880892384645L400.3229632270296,178.88457013780467L407.70025742913333,179.7624893867499L409.1757162695541,179.93750036544282L413.6020927908163,180.46140353581401L422.4548458333408,181.50412022498517L423.93030467376155,181.67724826083222L426.88122235460304,182.0229337437851L431.30759887586527,182.540069731686L434.25851655670675,182.8838950953427L435.7339753971275,183.055516776913L438.684893077969,183.39822378663698L441.63581075881046,183.74018903099744L443.1112695992312,183.91089777058193L453.4394814821765,185.1006551783536L465.24315220554246,186.4493786094164L466.71861104596326,186.6171431110964L468.194069886384,186.78473643615405L474.09590524806697,187.45327244063805L488.8504936522744,189.1119853230059L490.32595249269525,189.27686264565557L493.27687017353674,189.60610376108784L499.1787055352197,190.2624291665107L503.60508205648193,190.75281595422538L505.0805408969027,190.91592445177739L506.5559997373234,191.07885036093225L510.98237625858565,191.56658961688785L528.6878823436347,193.5017413325797L537.5406353861592,194.45990818208367L541.9670119074215,194.93666931065908L544.917929588263,195.25365417993092L546.3933884286837,195.4118784378585L549.3443061095252,195.7278248356214L555.2461414712081,196.35767492345383L561.1479768328911,196.9847975971034L564.0988945137326,197.2973432859689L571.4761887158363,198.0757404466786L592.1326124817268,200.2329653004354L599.5099066838305,200.99550009414043L600.9853655242513,201.1475049347892L606.8872008859344,201.75391523713418L608.3626597263551,201.90509842999566L614.2644950880381,202.50823355296632L615.7399539284588,202.65860650981534L618.6908716093003,202.95886171719596L623.1172481305625,203.40802917424816L630.4945423326664,204.15341207039353L631.9700011730871,204.30200479037006L633.4454600135078,204.4504377454991L640.8227542156116,205.19018322488162L642.2982130560323,205.33764617915065L643.773671896453,205.48496078034697L648.2000484177153,205.92592317130112L661.479177981502,207.2402629248208L664.4300956623434,207.53060129987978L673.282848704868,208.3978619511399L682.1356017473925,209.25948518563723L683.6110605878132,209.4025546065992L692.4638136303378,210.25767312944717L696.8901901516,210.68314974196585L702.792025513283,211.24830647832394L708.6938608749659,211.8110210948698L711.6447785558074,212.09146546115687L717.5466139174905,212.6505283097592L719.0220727579112,212.78992313922802L720.497531598332,212.92915820384934L723.4484492791735,213.2071832738738L730.8257434812772,213.89960412306337L738.203037683381,214.58829332188566L739.6784965238018,214.72558838478696L741.1539553642225,214.86272368284074L763.2858379705336,216.90211054977027L773.614049853479,217.84254350119858L782.4668028960034,218.64296538731756L783.942261736424,218.77586691691184L786.8931794172655,219.04123632865705L789.844097098107,219.30602373988629L795.7459324597902,219.83389820789608L809.0250620235768,221.01325948880358L811.9759797044183,221.27377889624884L813.4514385448391,221.40382748213725L817.8778150661014,221.79314018024033L826.7305681086259,222.56796545543025L838.5342388319918,223.59325636444595L840.0096976724126,223.72080577164797L844.4360741936748,224.10258669836756L845.9115330340956,224.22957692860325L859.1906625978824,225.3662809952206L860.666121438303,225.4919018124775L876.8961686829313,226.86476114729194L881.3225452041936,227.23635135909413L882.7980040446142,227.35994088043245L885.7489217254557,227.60673192276505L888.6998394062972,227.85297519990615L909.3562631721878,229.56188847972248L916.7335573742914,230.16594795645383L919.6844750551329,230.40666793458035L924.1108515763952,230.7667550773605L927.0617692572367,231.00617411315713L934.4390634593404,231.60243934768405L935.9145222997612,231.7213043942454L944.7672753422856,232.43180149475538L947.7181930231271,232.6676144097078L949.193651863548,232.785326867012L952.1445695443895,233.02036378127642L953.6200283848102,233.13769965001146L958.0464049060724,233.48893125552857L960.9973225869139,233.72245040374148L968.3746167890176,234.30405150762022L969.8500756294384,234.41998372805196L983.1292051932251,235.45782758937347L986.0801228740665,235.68709014557723L991.9819582357495,236.1441203154828L993.4574170761704,236.25806688709528L994.9328759165912,236.37189934095952L1000.8347112782742,236.825962449411L1006.7365466399572,237.2780741443677L1008.2120054803778,237.39079965607405L1012.6383820016401,237.72823442582958L1015.5892996824816,237.9525785070844L1017.0647585229025,238.06457366520203L1018.5402173633231,238.17644329379664L1020.015676203744,238.28818739286817L1021.4911350441646,238.39981737419146L1022.9665938845854,238.5113218259917L1025.9175115654268,238.73397696457266L1027.3929704058476,238.84511623957854L1034.7702646079513,239.39904378951033L1036.245723448372,239.50947553447716L1042.1475588100552,239.94998145443836L1046.5739353313172,240.2791084521224L1049.5248530121587,240.49794064613747L1058.3776060546832,241.15158428447683L1061.3285237355249,241.3685221238712L1068.7058179376286,241.90881260288896L1074.6076532993116,242.33894521953562L1076.0831121397323,242.4461930793267L1079.0340298205738,242.66032362211448L1096.7395359056227,243.9354639291155L1107.0677477885679,244.67167175830275L1108.5432066289889,244.776386204083L1111.4941243098303,244.98548415417366L1112.9695831502509,245.08985624670922L1114.4450419906718,245.19412563327137L1115.9205008310923,245.29828090208528L1118.8714185119338,245.5062376746936L1123.2977950331963,245.81734547993136L1129.1996303948793,246.23058866983925L1130.6750892353,246.33361417294566L1136.576924596983,246.74462065498815L1141.0033011182452,247.05171151548805L1146.9051364799282,247.45961399477855L1151.3315130011904,247.76438826498926L1152.8069718416114,247.86575906074626L1154.2824306820319,247.967015738755L1155.7578895224528,248.06816971079036L1157.2333483628734,248.16920956507747L1160.1842660437148,248.3709697439566L1161.6597248841358,248.47167865677383L1163.1351837245563,248.57228486361765L1167.5615602458188,248.87344160120932L1169.0370190862393,248.97361416060986L1170.5124779266603,249.07367260226212L1173.4633956075018,249.27346995587163L1176.4143132883432,249.47284507381266L1177.889772128764,249.57236716204827L1188.2179840117092,250.26599765936913L1192.6443605329714,250.5616653332707L1198.5461958946544,250.95440156382082L1202.9725724159166,251.24783252985696L1205.923490096758,251.44292823223924L1208.8744077775996,251.637601698953L1214.7762431392825,252.02568192537512L1220.6780785009655,252.4120846208982L1225.104455022228,252.70079681804486L1226.5799138626485,252.79682119729708L1228.0553727030695,252.89274287057583L1229.53083154349,252.98856754376862L1238.3835845860144,253.56130740449692L1247.236337628539,254.130344144295L1250.1872553093806,254.3192033117362L1251.6627141498013,254.4134816894404L1257.5645495114843,254.78956243463563L1261.9909260327465,255.07056027200164L1263.4663848731675,255.16402270780594L1267.8927613944295,255.44380519115325L1269.3682202348505,255.5368682148387L1270.843679075271,255.6298228266634L1273.7945967561125,255.81544105005474L1276.745514436954,256.00065415543986L1285.5982674794786,256.5538912929948L1290.0246440007409,256.8291661252868L1291.5001028411616,256.92072850058304L1295.9264793624238,257.194810802406L1297.4019382028446,257.2859737655834L1298.8773970432653,257.37703972867473L1301.8283147241068,257.5588749487121L1303.3037735645275,257.6496442056581L1312.156526607052,258.1922113337531L1318.058361968735,258.5519618291759L1319.5338208091557,258.6416583792885L1322.4847384899972,258.8207604792556L1325.4356561708387,258.9994688729913L1328.3865738516802,259.1777949722705L1329.8620326921011,259.26681822766847L1331.3374915325217,259.35573877709305L1332.8129503729426,259.4445623264316L1334.2884092133631,259.53329458157157L1338.7147857346256,259.7989093464755L1341.665703415467,259.9755008559815L1344.6166210963086,260.15171577691825L1349.0429976175706,260.4153277753407L1351.9939152984123,260.59058981307976L1353.469374138833,260.67807818476393L1354.9448329792538,260.7654752622496L1363.7975860217782,261.28786066656926L1365.273044862199,261.37459586111515L1368.2239625430404,261.5477866617237L1372.6503390643027,261.8068681855412L1378.5521744259856,262.1510016671181L1382.978550947248,262.4081260715534L1387.40492746851,262.66441741642655L1388.880386308931,262.74966337435797L1391.8313039897726,262.919881407625L1394.782221670614,263.08972855821025L1397.7331393514555,263.2592048261138L1405.1104335535592,263.6813035532847L1409.5368100748215,263.9334695415592L1412.487727755663,264.10111992549093L1434.619610361974,265.3470289712816L1440.521445723657,265.67587067459505L1443.4723634044988,265.83975517283505L1444.9478222449193,265.9215661865446L1450.8496576066022,266.24792582883396L1453.8005752874437,266.4105721495056L1455.2760341278647,266.49176692737467L1459.7024106491267,266.7348149075652L1462.6533283299682,266.8964113449531L1465.60424601081,267.0576597232089L1470.0306225320721,267.29887611354025L1472.9815402129136,267.45925719690945L1474.4569990533344,267.53931079729614L1477.4079167341758,267.6991726449109L1483.3097520958588,268.0178464568566" fill="none"></path></g></g></g></g></g></g><g transform="translate(30, 378)" clip-path="url(#clip_1)"><clipPath id="clip_1"><rect width="1483" height="22"></rect></clipPath><g><g><line x1="13.752747036793552" y1="0" x2="13.752747036793552" y2="5" style="visibility: inherit;" fill="rgb(0, 0, 0)" stroke="rgb(204, 204, 204)" stroke-width="1px"></line><line x1="161.2986310788684" y1="0" x2="161.2986310788684" y2="5" style="visibility: inherit;" fill="rgb(0, 0, 0)" stroke="rgb(204, 204, 204)" stroke-width="1px"></line><line x1="308.84451512094324" y1="0" x2="308.84451512094324" y2="5" style="visibility: inherit;" fill="rgb(0, 0, 0)" stroke="rgb(204, 204, 204)" stroke-width="1px"></line><line x1="456.390399163018" y1="0" x2="456.390399163018" y2="5" style="visibility: inherit;" fill="rgb(0, 0, 0)" stroke="rgb(204, 204, 204)" stroke-width="1px"></line><line x1="603.9362832050929" y1="0" x2="603.9362832050929" y2="5" style="visibility: inherit;" fill="rgb(0, 0, 0)" stroke="rgb(204, 204, 204)" stroke-width="1px"></line><line x1="751.4821672471677" y1="0" x2="751.4821672471677" y2="5" style="visibility: inherit;" fill="rgb(0, 0, 0)" stroke="rgb(204, 204, 204)" stroke-width="1px"></line><line x1="899.0280512892425" y1="0" x2="899.0280512892425" y2="5" style="visibility: inherit;" fill="rgb(0, 0, 0)" stroke="rgb(204, 204, 204)" stroke-width="1px"></line><line x1="1046.5739353313172" y1="0" x2="1046.5739353313172" y2="5" style="visibility: inherit;" fill="rgb(0, 0, 0)" stroke="rgb(204, 204, 204)" stroke-width="1px"></line><line x1="1194.1198193733921" y1="0" x2="1194.1198193733921" y2="5" style="visibility: inherit;" fill="rgb(0, 0, 0)" stroke="rgb(204, 204, 204)" stroke-width="1px"></line><line x1="1341.665703415467" y1="0" x2="1341.665703415467" y2="5" style="visibility: inherit;" fill="rgb(0, 0, 0)" stroke="rgb(204, 204, 204)" stroke-width="1px"></line></g><g transform="translate(0, 8)"><text x="13.752747036793552" y="0" dx="0em" dy="0.95em" style="text-anchor: middle; visibility: inherit; font-family: &quot;Helvetica Neue&quot;, sans-serif; font-size: 12px; font-weight: 200;" fill="rgb(50, 49, 63)" stroke="none" stroke-width="1px">-100</text><text x="161.2986310788684" y="0" dx="0em" dy="0.95em" style="text-anchor: middle; visibility: inherit; font-family: &quot;Helvetica Neue&quot;, sans-serif; font-size: 12px; font-weight: 200;" fill="rgb(50, 49, 63)" stroke="none" stroke-width="1px">0</text><text x="308.84451512094324" y="0" dx="0em" dy="0.95em" style="text-anchor: middle; visibility: inherit; font-family: &quot;Helvetica Neue&quot;, sans-serif; font-size: 12px; font-weight: 200;" fill="rgb(50, 49, 63)" stroke="none" stroke-width="1px">100</text><text x="456.390399163018" y="0" dx="0em" dy="0.95em" style="text-anchor: middle; visibility: inherit; font-family: &quot;Helvetica Neue&quot;, sans-serif; font-size: 12px; font-weight: 200;" fill="rgb(50, 49, 63)" stroke="none" stroke-width="1px">200</text><text x="603.9362832050929" y="0" dx="0em" dy="0.95em" style="text-anchor: middle; visibility: inherit; font-family: &quot;Helvetica Neue&quot;, sans-serif; font-size: 12px; font-weight: 200;" fill="rgb(50, 49, 63)" stroke="none" stroke-width="1px">300</text><text x="751.4821672471677" y="0" dx="0em" dy="0.95em" style="text-anchor: middle; visibility: inherit; font-family: &quot;Helvetica Neue&quot;, sans-serif; font-size: 12px; font-weight: 200;" fill="rgb(50, 49, 63)" stroke="none" stroke-width="1px">400</text><text x="899.0280512892425" y="0" dx="0em" dy="0.95em" style="text-anchor: middle; visibility: inherit; font-family: &quot;Helvetica Neue&quot;, sans-serif; font-size: 12px; font-weight: 200;" fill="rgb(50, 49, 63)" stroke="none" stroke-width="1px">500</text><text x="1046.5739353313172" y="0" dx="0em" dy="0.95em" style="text-anchor: middle; visibility: inherit; font-family: &quot;Helvetica Neue&quot;, sans-serif; font-size: 12px; font-weight: 200;" fill="rgb(50, 49, 63)" stroke="none" stroke-width="1px">600</text><text x="1194.1198193733921" y="0" dx="0em" dy="0.95em" style="text-anchor: middle; visibility: inherit; font-family: &quot;Helvetica Neue&quot;, sans-serif; font-size: 12px; font-weight: 200;" fill="rgb(50, 49, 63)" stroke="none" stroke-width="1px">700</text><text x="1341.665703415467" y="0" dx="0em" dy="0.95em" style="text-anchor: middle; visibility: inherit; font-family: &quot;Helvetica Neue&quot;, sans-serif; font-size: 12px; font-weight: 200;" fill="rgb(50, 49, 63)" stroke="none" stroke-width="1px">800</text></g><line x1="0" y1="0" x2="1483" y2="0" fill="rgb(0, 0, 0)" stroke="rgb(204, 204, 204)" stroke-width="1px"></line></g></g></g></g></svg>